<?xml version="1.0" encoding="UTF-8"?>
<svg version="1.1" viewBox="0 0 1740 1740" width="60" height="60" xmlns="http://www.w3.org/2000/svg">
<path transform="translate(410,298)" d="m0 0h332l2 1v124l-2 1h-188v39l-1 86-1 60-1 29-1 14 12 2 84 24 75 19 81 21 43 12 67 17 35 10 58 12 52 15 73 19 75 21 38 12 34 14 19 11 11 9 10 10 10 14 7 12 6 18 5 21 1 7v82l-1 222-1 153-2 1h-39l-192-1-93-1v-140h187l-1-184v-122l-28-5-28-6-57-15-63-17-159-43-57-15-83-21-61-17-65-17-66-18-52-15-16-8-12-8-25-25-9-14-5-11-6-20-2-16z" fill="#203864"/>
<path transform="translate(808,928)" d="m0 0 8 1 25 7 21 6 43 11 44 12 1 2v442l-2 1h-137l-1-1-1-64-1-235z" fill="#203864"/>
<path transform="translate(831,298)" d="m0 0h117l2 1v391l-9-1-44-11-59-16-27-6-1-1v-355l2-1z" fill="#203864"/>
<path transform="translate(604,1268)" d="m0 0h104l24 1 9 1 1 1v138l-331 1-1-1v-139l112-1z" fill="#203864"/>
<path transform="translate(1209,298)" d="m0 0h134l1 1 2 105v19l-2 1-79 1-124 1-88-1-34-1-2-3-1-14v-102l2-5 45-1z" fill="#203864"/>
<path transform="translate(408,820)" d="m0 0 11 1 21 5 68 20 52 15 74 20 109 30 1 2v107l-19-2-84-19-48-10-91-22-91-21-1-1-1-20-1-63z" fill="#1A1A1A"/>
<path transform="translate(1019,628)" d="m0 0 45 2 107 5 26 3 69 13 38 8 38 7 2 1v128l-7-1-19-6-49-13-49-14-65-18-38-12-79-21-18-5-2-1v-75z" fill="#1A1A1A"/>
<path transform="translate(1016,986)" d="m0 0 9 1 23 6 52 16 37 11 1 2v173l-3 1h-119z" fill="#1A1A1A"/>
<path transform="translate(409,1054)" d="m0 0h99l28 1 13 1 1 1v142h-23l-47-1h-69l-1-1-1-16-1-78v-48z" fill="#1A1A1A"/>
<path transform="translate(618,480)" d="m0 0h79l29 1 15 1 1 1v152l-4 1-27-6-47-13-37-11-9-4z" fill="#1A1A1A"/>
<path transform="translate(618,1064)" d="m0 0 27 2 36 2 59 2 2 1 1 44 1 81-1 1h-87l-38-1z" fill="#1A1A1A"/>
<path transform="translate(1208,482)" d="m0 0h125l10 1 1 1v85l-2 1-71 1-34 1h-31v-78l1-10z" fill="#1A1A1A"/>
<path transform="translate(1055,480)" d="m0 0h33l44 3 5 2 1 8v80l-1 1-63-1-35-1-16-1-5-1v-86l2-2z" fill="#1A1A1A"/>
</svg>
