<svg xmlns="http://www.w3.org/2000/svg" viewBox="0 0 400 400">
  <defs>
    <linearGradient id="techGradient" x1="0%" y1="0%" x2="100%" y2="100%">
      <stop offset="0%" style="stop-color:#6366f1;stop-opacity:1" />
      <stop offset="50%" style="stop-color:#818cf8;stop-opacity:1" />
      <stop offset="100%" style="stop-color:#4f46e5;stop-opacity:1" />
    </linearGradient>
    
    <filter id="neonGlow">
      <feGaussianBlur stdDeviation="2" result="blur"/>
      <feComposite in="SourceGraphic" in2="blur" operator="over"/>
    </filter>
  </defs>

  <!-- Анимированные линии -->
  <path d="M200,200 m-160,0 
           a160,160 0 1,0 320,0 
           a160,160 0 1,0 -320,0
           M200,200 m-120,0
           a120,120 0 1,0 240,0
           a120,120 0 1,0 -240,0"
        fill="none"
        stroke="url(#techGradient)"
        stroke-width="8"
        stroke-linecap="round">
    <animate attributeName="stroke-dasharray"
             values="0,2000;2000,0"
             dur="2s"
             repeatCount="indefinite"/>
    <animate attributeName="stroke-dashoffset"
             values="0;-2000"
             dur="5s"
             repeatCount="indefinite"/>
  </path>

  <!-- Новый дизайн монитора -->
  <rect x="140" y="150" width="120" height="80" 
        rx="10" ry="10" 
        fill="#2a2a2a" 
        stroke="url(#techGradient)" 
        stroke-width="2"
        filter="url(#neonGlow)" />
  
  <!-- Экран монитора -->
  <rect x="150" y="160" width="100" height="60" 
        rx="5" ry="5" 
        fill="#1a1a1a" />
  
  <!-- Подставка монитора -->
  <path d="M180,230 h40 l10,20 h-60 l10,-20" 
        fill="#2a2a2a" 
        stroke="url(#techGradient)" 
        stroke-width="2" />
  
  <!-- Кнопка S -->
  <circle cx="200" cy="225" r="3" 
          fill="url(#techGradient)" 
          filter="url(#neonGlow)">
    <animate attributeName="opacity"
             values="1;0.5;1"
             dur="2s"
             repeatCount="indefinite"/>
  </circle>
  
  <!-- Текст SSL на экране -->
  <text x="200" y="195" 
        font-family="Arial" 
        font-size="24" 
        font-weight="bold" 
        fill="url(#techGradient)" 
        filter="url(#neonGlow)"
        text-anchor="middle">SSL</text>

</svg>
